<svg id="Capa_1" enable-background="new 0 0 512 512" height="512" viewBox="0 0 512 512" width="512" xmlns="http://www.w3.org/2000/svg"><g><g><g><g><g><g><g><g><g><circle cx="256" cy="256" fill="#64e1dc" r="256"/></g></g></g></g></g></g></g></g><path d="m259.273 511.979c139.877-1.752 252.727-115.687 252.727-255.979 0-6.131-.216-12.211-.64-18.235l-168.838-168.838-28.534 66.915-62.698-16.102-50.813-50.813-11.445 104.795 53.71 53.71-73.265 194.751z" fill="#00c8c8"/><g><path d="m184.978 106.33h142.045v30h-142.045z" fill="#ffce00"/></g><g><path d="m255.986 106.33h71.037v30h-71.037z" fill="#fdba12"/></g><g><path d="m199.812 166.2h112.377v31h-112.377z" fill="#fff"/></g><g><path d="m255.986 166.2h56.203v31h-56.203z" fill="#e9edf5"/></g><g><path d="m184.978 353.707h142.045v30h-142.045z" fill="#ffce00"/></g><g><path d="m255.986 353.707h71.037v30h-71.037z" fill="#fdba12"/></g><g><path d="m199.812 292.836h112.377v31h-112.377z" fill="#fff"/></g><g><path d="m255.986 292.836h56.203v31h-56.203z" fill="#e9edf5"/></g><g><path d="m200.478 422.184h-31v-52.402c0-39.062 16.035-77.11 43.995-104.388l63.407-61.864c22.016-21.48 34.643-51.441 34.643-82.199v-52.404h31v52.402c0 39.062-16.035 77.109-43.995 104.388l-63.407 61.864c-22.016 21.48-34.643 51.441-34.643 82.2z" fill="#6177e2"/></g><g><path d="m311.522 68.927v52.402c0 30.759-12.627 60.719-34.643 82.199l-20.893 20.385v43.31l42.542-41.506c27.959-27.279 43.995-65.327 43.995-104.388v-52.402z" fill="#4a5bd3"/></g><g><path d="m342.522 422.184h-31v-52.402c0-30.759-12.627-60.72-34.643-82.2l-63.407-61.864c-27.959-27.279-43.995-65.327-43.995-104.388v-52.403h31v52.402c0 30.759 12.627 60.719 34.643 82.2l63.407 61.863c27.959 27.278 43.995 65.326 43.995 104.389z" fill="#8eaaef"/></g><g><path d="m298.528 265.393-42.542-41.506v43.31l20.893 20.385c22.016 21.48 34.643 51.44 34.643 82.2v52.402h31v-52.402c0-39.063-16.035-77.111-43.994-104.389z" fill="#6177e2"/></g></g></svg>